# xmcd CD database file
#
# Track frame offsets:
#	150
#	11742
#	28869
#	39347
#	52570
#	66175
#	77790
#	91012
#	105965
#	116088
#	129799
#	138756
#	149030
#	165577
#	179837
#	190003
#	205258
#	218765
#	229937
#	246810
#
# Disc length: 3441 seconds
#
# Revision: 1
# Processed by: cddbd v1.4b41PL3 Copyright (c) Steve Scherf et al.
# Submitted via: CDex 1.40Beta4
#
DISCID=0c0d6f14
DTITLE=Various Artist - Country Woman CD2
DYEAR=1998
DGENRE=Country
TTITLE0=Parton, Dolly - Honky Tonk Angels
TTITLE1=Anderson, Lynn - Blue Bajou
TTITLE2=Jackson, Wanda - It's only make believe
TTITLE3=Tucker, Tanya - The man that turned my mama on
TTITLE4=Page, Patti - The Tennessee Waltz
TTITLE5=Cline, Patsy - I've loved and lost again
TTITLE6=Lynn, Loretta - Let your love flow
TTITLE7=Spears, Billie Jo - Crystal chandeliers
TTITLE8=Parton, Dolly - A girl left alone
TTITLE9=Kendalls - Heartaches by the number
TTITLE10=Posey, Sandy - Born a woman
TTITLE11=Mandrell, Barbara - Kaw-Liga
TTITLE12=Gayle, Crystal - When I dream
TTITLE13=Peppers, Nancy - The words that go unspoken
TTITLE14=Lee, Brenda - I'm sorry
TTITLE15=Spears, Billie Jo - Blanket on the ground
TTITLE16=Parton, Dolly - Little blossoms
TTITLE17=Cline, Patsy - Stop the world
TTITLE18=Fricke, Janie - It ain't easy being easy
TTITLE19=Smith, Sammi - Help me make it through the night
EXTD=YEAR: 1998 ID3G:   2
EXTT0=
EXTT1=
EXTT2=
EXTT3=
EXTT4=
EXTT5=
EXTT6=
EXTT7=
EXTT8=
EXTT9=
EXTT10=
EXTT11=
EXTT12=
EXTT13=
EXTT14=
EXTT15=
EXTT16=
EXTT17=
EXTT18=
EXTT19=
PLAYORDER=
